<svg width="512" height="424" viewBox="0 0 512 424" fill="none" xmlns="http://www.w3.org/2000/svg">
<path d="M97 1.40002C84.7 5.00002 12.7 32.1 10.3 34C6.5 37 2.2 43.5 0.900003 48.4C-0.499996 53.2 1.1 69.5 3.6 78.2C5.7 85.2 11 95.5 15.5 101.4C23.6 112.1 91.2 190.1 93.7 191.7C96.3 193.4 102.6 193.8 109.9 192.8C112.1 192.5 112.6 193.4 116.1 202.9C118.3 208.6 120 213.8 120 214.5C120 215.1 118.1 216.3 115.9 217C106.9 220 103.4 227.1 106.4 236.5C107.3 239.3 108 242 108 242.3C108 242.7 89.7 243 67.3 243C28.1 243 26.4 243.1 23.2 245C17.9 248.2 17 251.8 17 269.3C17 283.3 17.2 284.8 19 286.8C21.8 289.8 27.2 289.8 30 286.8C31.8 284.8 32 283.3 32 271.3V258H171H310V271C310 281.7 309.7 284 308.6 284C304.8 284 289.3 290.7 282.2 295.4L274.1 300.7L267.3 294.1C252.3 279.7 236.2 276.5 219.9 284.7C197.8 295.7 179.9 328.2 178.3 360C177.4 377.6 181.3 389.6 192 402.8L197.1 409.1L147.3 408.8C102.9 408.5 97.2 408.3 94.5 406.8C89.2 403.9 39.6 360 36.8 355.8C32.7 349.7 32 346 32 329.4C32 315.7 31.8 314.2 30 312.2C27.2 309.2 21.8 309.2 19 312.3C16.9 314.4 16.9 315.3 17.2 332.5C17.6 352 18.6 356.3 24.8 365.2C27.5 369.1 76.5 412.6 84.4 418.1C92.8 424 93.5 424 171.6 424C238.6 424 243.1 423.9 250.2 422.1C254.4 421 260.2 418.9 263 417.5L268.3 414.8L273.9 417.3C286.6 423 289.4 423.2 355.8 423.7C387.6 423.9 406.4 423.7 408.9 423C413.9 421.7 417.6 418.7 419.9 414.2C421.2 411.6 426.2 382.3 436.1 320.2L450.5 230H459.6H468.8L469.4 239.2C469.7 244.3 470.2 263.6 470.6 282C470.9 300.4 471.6 317.1 472.1 319.1C473.1 323.3 476.5 326.7 480.8 327.9C482.5 328.4 488.4 328.6 494 328.3C503 327.8 504.6 327.4 507.2 325.2C508.8 323.8 510.6 321.5 511.1 320.1C512.4 316.9 510.4 227.9 508.9 219.5C507.4 211.4 504.2 205.4 498.1 199.7C489.9 192 485.8 190.6 470.3 190.2L457.1 189.8L457.6 184.1C458.4 177.2 456.5 172.9 451.7 170C448.6 168.1 446.1 168 373.3 168C299.3 168 295 167.5 293 169.5C290.2 172.3 289.5 181 295 182.5L298.9 183H371H443L442.5 185.2C442.2 186.5 434.1 237 424.5 297.4C413.4 367.1 406.5 407.7 405.7 408.2C405.1 408.6 389.3 409 370.7 409H336.9L342.6 402.3C351.9 391.4 358.3 375 359.7 358.3C360.5 349 358.9 346 353 346C347.7 346 345.5 349 344.7 357.2C342.6 378.8 332.5 395.9 317.6 402.9C310.4 406.4 300.4 408.4 294.6 407.5C287.8 406.5 282 404.8 282 403.8C282 403.2 283.2 401.4 284.6 399.7C288.3 395.3 292.6 386.3 294.5 378.9C295.8 373.9 296.1 369.7 295.7 360C295.2 345.8 292.5 335 286.2 321.6L282.6 313.7L286 310.9C291 306.7 301.9 301.2 309 299.4C323 295.8 332.6 300.8 339.6 315.3C341.4 319 343.4 322.7 344 323.5C345.8 325.7 351.6 325.4 354 323C356.7 320.3 356.5 316.2 353.5 309.3C348.2 297.5 338.9 288.4 328.8 285.1L325 283.8V268.2C325 254.4 324.8 252.1 323 249.3C319.6 243.7 317 243 298.7 243H282.2L281.1 236.7C280.5 233.3 279.8 228.5 279.4 226C278.6 220.6 276 215.3 272.8 212.3C271.6 211.1 261.5 205.9 250.5 200.7L230.5 191.3L230.2 187.2L229.9 183H248.4C268.1 183 271.6 184.1 273.5 180C275.1 176.4 278.5 168 273 168L269.1 168H246.5C228.3 168 223.3 168.3 221 169.5C216.3 172 215 175.6 215 186.9C215 196.5 215.1 197.1 217.8 200C219.6 202.1 227.7 206.5 242 213.3L263.5 223.6L264.6 229C265.2 232 265.9 236.4 266.2 238.8L266.8 243L217.7 242.8L168.6 242.5L163.3 228C159.7 218.1 157.1 212.6 155.1 210.7C151.5 207.1 145.8 206.2 139.5 208.3C134.1 210.2 135.1 211.3 129.6 196.1L126.3 186.7L131.3 184.1C139.9 179.7 140.3 178.7 141.2 157.7C141.7 147.7 141.9 117.9 141.7 91.5L141.4 43.5L138.6 35.8C135.7 27.8 126.9 12.6 122.2 7.70001C116.5 1.70001 105.4 -1.09998 97 1.40002ZM107.9 16.1C111.3 17.3 116.5 24.1 121.4 33.7C126.9 44.6 127 46.2 126.9 100C126.8 127.2 126.5 150.8 126.1 152.4C125.7 154.5 123.1 143.8 117.2 115.4C105.2 57.9 102.2 47.4 92.3 27.6C90.4 23.9 89 20.6 89.2 20.4C89.9 19.8 102.4 15.1 103.6 15C104.2 15 106.1 15.5 107.9 16.1ZM79.3 35.2C84.7 46.6 88.3 56.1 90.9 66C93.6 75.8 114.1 173.1 113.8 174.1C113.3 175.3 60.5 75.3 57.6 67.7C54.2 58.9 49 40.4 49 37.1C49 34.7 49.9 34.2 60.3 30.4C66.4 28.1 72.3 26.2 73.2 26.1C74.5 26 76.2 28.6 79.3 35.2ZM40 62C44.6 76.7 49.2 86.3 74.4 133.4C84.6 152.6 92.9 168.4 92.8 168.5C92.2 169.1 27.3 92.6 24.3 87.8C20.3 81.6 17.4 72.9 15.9 63.2C14 50.2 15.8 46.9 27 42.6L33.5 40.2L34.8 44.8C35.5 47.4 37.9 55.1 40 62ZM482.9 207C488.2 209.6 492.7 215.3 493.9 220.9C494.4 223.4 495.1 238.3 495.5 254C495.8 269.7 496.3 289.3 496.6 297.6L497.3 312.8L492.4 313.2C489.7 313.5 487.2 313.4 486.9 313.1C486.5 312.8 485.8 293.2 485.2 269.7C484 220.9 484.1 221.4 476 217.2C472.3 215.4 470 215 462.2 215H452.8L453.4 211.9C453.7 210.2 454 207.9 454 206.9C454 205.1 454.9 205 466.5 205C477 205 479.7 205.3 482.9 207ZM148.8 231.9C150.6 236.7 152 241.3 152 241.9C152 242.7 148.2 243 138.3 242.8L124.5 242.5L122.6 237.2C121.6 234.3 121 231.7 121.3 231.4C122.2 230.5 142.3 223.1 144 223.1C145.1 223 146.6 225.8 148.8 231.9ZM243.9 296.5C267.7 304.8 287.6 350.7 279.2 377.7C274.2 393.5 260.6 405.2 243.8 408.1C224.9 411.2 205.3 400.5 196.8 382.4C190.3 368.4 192.4 347 202.4 326.5C210 310.6 220.3 299.6 230.2 296.5C235.9 294.7 238.9 294.7 243.9 296.5Z" fill="#99CC66"/>
<path d="M382.5 215.9C377.6 218 376.1 224.2 379.5 228C382.1 230.9 395.1 230.9 398 228C400.7 225.3 400.6 219.9 398 217.5C395.7 215.4 385.9 214.4 382.5 215.9Z" fill="#99CC66"/>
<path d="M381.3 253.2C378.5 254.6 376.8 259.3 378 262.5C379.3 265.9 382 267 389.4 267C397.3 267 400 265.1 400 259.6C400 254.5 396.3 252 389.1 252.1C386 252.1 382.5 252.6 381.3 253.2Z" fill="#99CC66"/>
<path d="M381.2 289.7C380.5 290 379.3 291.5 378.4 293.2C377.1 295.7 377.1 296.7 378.1 299.1C379.7 303.1 381.8 304 388.8 304C396.3 304 400 301.5 400 296.6C400 291.2 396.7 289 388.9 289.1C385.4 289.1 381.9 289.4 381.2 289.7Z" fill="#99CC66"/>
<path d="M379.9 327.8C376.6 330.5 376.9 335.6 380.4 338.7C384.1 341.9 393.5 342 397.4 338.9C400.7 336.3 401 331 398 328C395.2 325.2 383.3 325.1 379.9 327.8Z" fill="#99CC66"/>
</svg>
