<svg width="32" height="28" viewBox="0 0 32 28" fill="none" xmlns="http://www.w3.org/2000/svg">
<path d="M14.7241 27.2864C15.1142 27.4476 15.5323 27.53 15.9544 27.529C16.3764 27.53 16.7945 27.4476 17.1846 27.2864C17.5747 27.1253 17.9291 26.8886 18.2273 26.5899L29.4321 15.3745C30.3149 14.4886 30.9989 13.4249 31.4384 12.2541C31.8779 11.0832 32.0629 9.8322 31.9812 8.58427C31.8994 7.33634 31.5527 6.12015 30.9641 5.0167C30.3755 3.91325 29.5586 2.94785 28.5678 2.18481C26.8271 0.896897 24.6787 0.283443 22.5205 0.458066C20.3622 0.632688 18.3404 1.58355 16.8294 3.13455L15.9544 4.00959L14.8872 2.94247C14.0772 2.12394 13.111 1.47642 12.046 1.03831C10.9809 0.600208 9.83879 0.380438 8.68724 0.392038C7.55594 0.380778 6.43353 0.592819 5.38431 1.01602C4.33509 1.43921 3.37967 2.06525 2.57277 2.85827C1.76587 3.65129 1.12336 4.59571 0.682024 5.63743C0.24069 6.67915 0.00921008 7.79771 0.000844122 8.92903C-0.0157846 10.1635 0.21342 11.389 0.675103 12.5341C1.13679 13.6791 1.82172 14.7208 2.69 15.5986L13.6814 26.5899C13.9796 26.8886 14.334 27.1253 14.7241 27.2864Z" fill="#99CC66"/>
</svg>
