<svg width="32" height="28" viewBox="0 0 32 28" fill="none" xmlns="http://www.w3.org/2000/svg">
<path d="M15.9544 27.5686C15.5323 27.5696 15.1142 27.4872 14.7241 27.326C14.334 27.1648 13.9796 26.9281 13.6814 26.6295L2.69 15.6381C1.82172 14.7604 1.13679 13.7187 0.675104 12.5736C0.21342 11.4286 -0.0157846 10.2031 0.000844123 8.96859C0.00921008 7.83726 0.24069 6.7187 0.682024 5.67698C1.12336 4.63526 1.76587 3.69084 2.57277 2.89782C3.37967 2.1048 4.33509 1.47876 5.38431 1.05557C6.43353 0.63237 7.55594 0.420328 8.68724 0.431589C9.83879 0.419989 10.9809 0.639759 12.046 1.07786C13.111 1.51597 14.0772 2.16349 14.8872 2.98202L15.9544 4.04914L16.8294 3.1741C18.3404 1.62311 20.3622 0.672239 22.5205 0.497616C24.6787 0.322994 26.8271 0.936448 28.5678 2.22436C29.5586 2.9874 30.3755 3.9528 30.9641 5.05625C31.5527 6.1597 31.8994 7.37589 31.9812 8.62382C32.0629 9.87175 31.8779 11.1228 31.4384 12.2936C30.9989 13.4644 30.3149 14.5282 29.4321 15.414L18.2273 26.6295C17.9291 26.9281 17.5747 27.1648 17.1846 27.326C16.7945 27.4872 16.3764 27.5696 15.9544 27.5686ZM8.64455 2.55517C6.94838 2.55344 5.31807 3.21168 4.0986 4.39062C3.47689 4.98879 2.98248 5.70644 2.64507 6.50047C2.30765 7.2945 2.13419 8.14853 2.13509 9.01127C2.12574 9.96028 2.30486 10.9017 2.66206 11.781C3.01926 12.6602 3.54744 13.4599 4.21599 14.1335L15.2074 25.1249C15.3066 25.2249 15.4246 25.3043 15.5546 25.3584C15.6847 25.4126 15.8242 25.4405 15.965 25.4405C16.1059 25.4405 16.2454 25.4126 16.3754 25.3584C16.5055 25.3043 16.6235 25.2249 16.7227 25.1249L27.9382 13.8987C28.5965 13.2265 29.1051 12.4225 29.4307 11.5397C29.7562 10.6569 29.8913 9.71522 29.827 8.7765C29.77 7.82817 29.5088 6.90334 29.0612 6.06531C28.6137 5.22729 27.9903 4.49586 27.2339 3.92109C25.9065 2.94242 24.2686 2.47967 22.6254 2.61907C20.9821 2.75846 19.4456 3.49048 18.302 4.67874L16.712 6.31145C16.6128 6.41147 16.4948 6.49085 16.3647 6.54503C16.2347 6.59921 16.0952 6.6271 15.9544 6.6271C15.8135 6.6271 15.674 6.59921 15.544 6.54503C15.4139 6.49085 15.2959 6.41147 15.1967 6.31145L13.3826 4.49733C12.1331 3.2587 10.4466 2.56111 8.68724 2.55517H8.64455Z" fill="#99CC66"/>
</svg>
