<svg width="90" height="90" viewBox="0 0 90 90" fill="none" xmlns="http://www.w3.org/2000/svg">
<path fill-rule="evenodd" clip-rule="evenodd" d="M52.1705 89.4317C73.6153 85.9978 90.0001 67.4123 90.0001 44.9998C90.0001 20.1879 69.9191 0.0660917 45.1226 0L45.5514 6.29996C67.1267 6.35462 84.6001 23.8616 84.6001 45.4498C84.6001 65.2329 69.9266 81.5888 50.8696 84.2278L52.1705 89.4317Z" fill="#99CC66"/>
<path fill-rule="evenodd" clip-rule="evenodd" d="M45.1225 0.000163278C45.0817 5.44487e-05 45.0409 0 45 0C20.1472 0 0 20.1472 0 45C0 69.8528 20.1472 90 45 90C47.4404 90 49.8354 89.8057 52.1705 89.4318L50.8695 84.2279C49.0981 84.4732 47.2889 84.6 45.45 84.6C23.828 84.6 6.3 67.072 6.3 45.45C6.3 23.828 23.828 6.3 45.45 6.3C45.4838 6.3 45.5176 6.30004 45.5513 6.30013L45.1225 0.000163278Z" fill="#ECF1EC"/>
<path d="M20.63 45.52C20.63 44.74 20.768 43.978 21.044 43.234C21.32 42.478 21.722 41.794 22.25 41.182C22.79 40.558 23.444 40.066 24.212 39.706C24.98 39.334 25.85 39.148 26.822 39.148C27.974 39.148 28.97 39.412 29.81 39.94C30.65 40.456 31.274 41.122 31.682 41.938L30.098 43C29.858 42.484 29.552 42.076 29.18 41.776C28.82 41.476 28.424 41.266 27.992 41.146C27.572 41.026 27.158 40.966 26.75 40.966C26.078 40.966 25.49 41.104 24.986 41.38C24.482 41.644 24.056 41.998 23.708 42.442C23.372 42.886 23.114 43.384 22.934 43.936C22.766 44.488 22.682 45.04 22.682 45.592C22.682 46.204 22.784 46.798 22.988 47.374C23.192 47.938 23.474 48.442 23.834 48.886C24.206 49.318 24.644 49.66 25.148 49.912C25.652 50.164 26.204 50.29 26.804 50.29C27.212 50.29 27.638 50.218 28.082 50.074C28.526 49.93 28.934 49.708 29.306 49.408C29.69 49.096 29.99 48.688 30.206 48.184L31.88 49.138C31.616 49.774 31.202 50.314 30.638 50.758C30.086 51.202 29.462 51.538 28.766 51.766C28.082 51.994 27.404 52.108 26.732 52.108C25.832 52.108 25.01 51.922 24.266 51.55C23.522 51.166 22.88 50.662 22.34 50.038C21.8 49.402 21.38 48.694 21.08 47.914C20.78 47.122 20.63 46.324 20.63 45.52ZM32.8087 49.246C32.8087 48.646 32.9767 48.124 33.3127 47.68C33.6607 47.224 34.1347 46.876 34.7347 46.636C35.3347 46.384 36.0307 46.258 36.8227 46.258C37.2427 46.258 37.6687 46.288 38.1007 46.348C38.5447 46.408 38.9347 46.504 39.2707 46.636V46.042C39.2707 45.382 39.0727 44.866 38.6767 44.494C38.2807 44.122 37.7107 43.936 36.9667 43.936C36.4387 43.936 35.9407 44.032 35.4727 44.224C35.0047 44.404 34.5067 44.662 33.9787 44.998L33.3127 43.666C33.9367 43.246 34.5607 42.934 35.1847 42.73C35.8207 42.526 36.4867 42.424 37.1827 42.424C38.4427 42.424 39.4327 42.76 40.1527 43.432C40.8847 44.092 41.2507 45.034 41.2507 46.258V49.768C41.2507 49.996 41.2867 50.158 41.3587 50.254C41.4427 50.35 41.5807 50.404 41.7727 50.416V52C41.5927 52.036 41.4307 52.06 41.2867 52.072C41.1427 52.084 41.0227 52.09 40.9267 52.09C40.5067 52.09 40.1887 51.988 39.9727 51.784C39.7567 51.58 39.6307 51.34 39.5947 51.064L39.5407 50.524C39.1327 51.052 38.6107 51.46 37.9747 51.748C37.3387 52.036 36.6967 52.18 36.0487 52.18C35.4247 52.18 34.8667 52.054 34.3747 51.802C33.8827 51.538 33.4987 51.184 33.2227 50.74C32.9467 50.296 32.8087 49.798 32.8087 49.246ZM38.8027 49.822C38.9467 49.666 39.0607 49.51 39.1447 49.354C39.2287 49.198 39.2707 49.06 39.2707 48.94V47.86C38.9347 47.728 38.5807 47.632 38.2087 47.572C37.8367 47.5 37.4707 47.464 37.1107 47.464C36.3907 47.464 35.8027 47.608 35.3467 47.896C34.9027 48.184 34.6807 48.58 34.6807 49.084C34.6807 49.36 34.7527 49.624 34.8967 49.876C35.0527 50.128 35.2687 50.332 35.5447 50.488C35.8327 50.644 36.1867 50.722 36.6067 50.722C37.0387 50.722 37.4527 50.638 37.8487 50.47C38.2447 50.302 38.5627 50.086 38.8027 49.822ZM48.9448 44.296C48.1768 44.308 47.4928 44.482 46.8928 44.818C46.3048 45.154 45.8848 45.628 45.6328 46.24V52H43.6528V42.586H45.4888V44.692C45.8128 44.044 46.2388 43.528 46.7668 43.144C47.2948 42.748 47.8528 42.532 48.4408 42.496C48.5608 42.496 48.6568 42.496 48.7288 42.496C48.8128 42.496 48.8848 42.502 48.9448 42.514V44.296ZM55.4613 52.18C54.7413 52.18 54.0873 52.012 53.4993 51.676C52.9233 51.328 52.4673 50.866 52.1313 50.29V52H50.3853V38.86H52.3653V44.368C52.7373 43.768 53.1993 43.294 53.7513 42.946C54.3153 42.598 54.9753 42.424 55.7313 42.424C56.3553 42.424 56.9253 42.556 57.4413 42.82C57.9573 43.084 58.3953 43.444 58.7553 43.9C59.1273 44.356 59.4093 44.878 59.6013 45.466C59.8053 46.054 59.9073 46.678 59.9073 47.338C59.9073 47.998 59.7933 48.622 59.5653 49.21C59.3493 49.798 59.0373 50.314 58.6293 50.758C58.2213 51.202 57.7473 51.55 57.2073 51.802C56.6793 52.054 56.0973 52.18 55.4613 52.18ZM54.9393 50.488C55.3713 50.488 55.7673 50.404 56.1273 50.236C56.4873 50.056 56.7993 49.822 57.0633 49.534C57.3273 49.246 57.5253 48.91 57.6573 48.526C57.8013 48.142 57.8733 47.746 57.8733 47.338C57.8733 46.774 57.7533 46.246 57.5133 45.754C57.2853 45.262 56.9613 44.866 56.5413 44.566C56.1213 44.266 55.6353 44.116 55.0833 44.116C54.6873 44.116 54.3153 44.212 53.9673 44.404C53.6193 44.584 53.3073 44.83 53.0313 45.142C52.7673 45.442 52.5453 45.778 52.3653 46.15V48.634C52.4373 48.91 52.5633 49.162 52.7433 49.39C52.9233 49.606 53.1333 49.798 53.3733 49.966C53.6133 50.122 53.8713 50.248 54.1473 50.344C54.4233 50.44 54.6873 50.488 54.9393 50.488ZM65.036 52.18C64.244 52.18 63.494 52.054 62.786 51.802C62.078 51.538 61.472 51.148 60.968 50.632L61.706 49.3C62.246 49.78 62.786 50.128 63.326 50.344C63.878 50.56 64.424 50.668 64.964 50.668C65.516 50.668 65.966 50.566 66.314 50.362C66.662 50.146 66.836 49.834 66.836 49.426C66.836 49.126 66.746 48.904 66.566 48.76C66.386 48.616 66.122 48.49 65.774 48.382C65.438 48.274 65.03 48.154 64.55 48.022C63.878 47.818 63.314 47.608 62.858 47.392C62.402 47.164 62.06 46.888 61.832 46.564C61.604 46.24 61.49 45.826 61.49 45.322C61.49 44.71 61.646 44.188 61.958 43.756C62.27 43.324 62.702 42.994 63.254 42.766C63.818 42.538 64.466 42.424 65.198 42.424C65.882 42.424 66.512 42.532 67.088 42.748C67.676 42.952 68.192 43.276 68.636 43.72L67.79 45.034C67.37 44.65 66.938 44.368 66.494 44.188C66.062 44.008 65.594 43.918 65.09 43.918C64.802 43.918 64.526 43.954 64.262 44.026C63.998 44.086 63.776 44.206 63.596 44.386C63.428 44.554 63.344 44.794 63.344 45.106C63.344 45.358 63.416 45.562 63.56 45.718C63.704 45.874 63.92 46.006 64.208 46.114C64.496 46.222 64.85 46.342 65.27 46.474C66.002 46.69 66.626 46.906 67.142 47.122C67.658 47.326 68.054 47.596 68.33 47.932C68.618 48.256 68.762 48.706 68.762 49.282C68.762 50.194 68.42 50.908 67.736 51.424C67.064 51.928 66.164 52.18 65.036 52.18Z" fill="#56514B"/>
</svg>
