<svg width="91" height="90" viewBox="0 0 91 90" fill="none" xmlns="http://www.w3.org/2000/svg">
<path fill-rule="evenodd" clip-rule="evenodd" d="M88.4401 58.4997C89.7785 54.2381 90.5001 49.7033 90.5001 45.0001C90.5001 20.1881 70.4191 0.0663025 45.6225 0.000164789L45.5 0V6.30253C45.6498 6.30085 45.7998 6.3 45.95 6.3L46.0513 6.30011C67.6268 6.35482 85.1001 23.8619 85.1001 45.4501C85.1001 50.0257 84.3151 54.418 82.8725 58.4997H88.4401Z" fill="#99CC66"/>
<path fill-rule="evenodd" clip-rule="evenodd" d="M45.5 0C20.6472 0 0.5 20.1472 0.5 45C0.5 69.8528 20.6472 90 45.5 90C47.9404 90 50.3354 89.8058 52.6705 89.4318C69.6151 86.7186 83.4005 74.5456 88.4401 58.4997H82.8725C78.0779 72.0653 66.0189 82.1994 51.3695 84.2279C49.5981 84.4732 47.7889 84.6 45.95 84.6C24.3281 84.6 6.8 67.072 6.8 45.45C6.8 23.9782 24.0854 6.54372 45.5 6.30253L45.5 0Z" fill="#ECF1EC"/>
<path d="M31.44 52V39.22H39.954V41.002H33.456V44.818H38.892V46.492H33.456V52H31.44ZM40.0138 49.246C40.0138 48.646 40.1818 48.124 40.5178 47.68C40.8658 47.224 41.3398 46.876 41.9398 46.636C42.5398 46.384 43.2358 46.258 44.0278 46.258C44.4478 46.258 44.8738 46.288 45.3058 46.348C45.7498 46.408 46.1398 46.504 46.4758 46.636V46.042C46.4758 45.382 46.2778 44.866 45.8818 44.494C45.4858 44.122 44.9158 43.936 44.1718 43.936C43.6438 43.936 43.1458 44.032 42.6778 44.224C42.2098 44.404 41.7118 44.662 41.1838 44.998L40.5178 43.666C41.1418 43.246 41.7658 42.934 42.3898 42.73C43.0258 42.526 43.6918 42.424 44.3878 42.424C45.6478 42.424 46.6378 42.76 47.3578 43.432C48.0898 44.092 48.4558 45.034 48.4558 46.258V49.768C48.4558 49.996 48.4918 50.158 48.5638 50.254C48.6478 50.35 48.7858 50.404 48.9778 50.416V52C48.7978 52.036 48.6358 52.06 48.4918 52.072C48.3478 52.084 48.2278 52.09 48.1318 52.09C47.7118 52.09 47.3938 51.988 47.1778 51.784C46.9618 51.58 46.8358 51.34 46.7998 51.064L46.7458 50.524C46.3378 51.052 45.8158 51.46 45.1798 51.748C44.5438 52.036 43.9018 52.18 43.2538 52.18C42.6298 52.18 42.0718 52.054 41.5798 51.802C41.0878 51.538 40.7038 51.184 40.4278 50.74C40.1518 50.296 40.0138 49.798 40.0138 49.246ZM46.0078 49.822C46.1518 49.666 46.2658 49.51 46.3498 49.354C46.4338 49.198 46.4758 49.06 46.4758 48.94V47.86C46.1398 47.728 45.7858 47.632 45.4138 47.572C45.0418 47.5 44.6758 47.464 44.3158 47.464C43.5958 47.464 43.0078 47.608 42.5518 47.896C42.1078 48.184 41.8858 48.58 41.8858 49.084C41.8858 49.36 41.9578 49.624 42.1018 49.876C42.2578 50.128 42.4738 50.332 42.7498 50.488C43.0378 50.644 43.3918 50.722 43.8118 50.722C44.2438 50.722 44.6578 50.638 45.0538 50.47C45.4498 50.302 45.7678 50.086 46.0078 49.822ZM56.0256 51.514C55.8576 51.598 55.6476 51.688 55.3956 51.784C55.1436 51.88 54.8556 51.964 54.5316 52.036C54.2196 52.108 53.8956 52.144 53.5596 52.144C53.1516 52.144 52.7736 52.072 52.4256 51.928C52.0776 51.784 51.7956 51.556 51.5796 51.244C51.3756 50.92 51.2736 50.506 51.2736 50.002V44.116H50.0316V42.586H51.2736V39.49H53.2536V42.586H55.3056V44.116H53.2536V49.372C53.2776 49.696 53.3796 49.936 53.5596 50.092C53.7516 50.248 53.9856 50.326 54.2616 50.326C54.5376 50.326 54.8016 50.278 55.0536 50.182C55.3056 50.086 55.4916 50.008 55.6116 49.948L56.0256 51.514Z" fill="#56514B"/>
</svg>
