<svg width="91" height="90" viewBox="0 0 91 90" fill="none" xmlns="http://www.w3.org/2000/svg">
<path fill-rule="evenodd" clip-rule="evenodd" d="M87.1371 27.8998C80.4205 11.5632 64.3691 0.050166 45.6225 0.000164795L45.4999 0C45.4999 0 45.4999 0 45.4999 0V6.30253C45.6497 6.30084 45.7997 6.29999 45.9499 6.29999L46.0513 6.3001C61.3204 6.33882 74.5349 15.1185 80.9554 27.8998H87.1371Z" fill="#99CC66"/>
<path fill-rule="evenodd" clip-rule="evenodd" d="M45.5 0C20.6472 0 0.5 20.1471 0.5 45C0.5 69.8528 20.6472 89.9999 45.5 89.9999C47.9403 89.9999 50.3354 89.8057 52.6704 89.4318C74.1152 85.9979 90.5 67.4124 90.5 45C90.5 38.9463 89.3046 33.1719 87.1371 27.8998H80.9554C83.6072 33.1786 85.1 39.14 85.1 45.45C85.1 65.2331 70.4266 81.589 51.3694 84.2279C49.5981 84.4731 47.7888 84.5999 45.95 84.5999C24.328 84.5999 6.79999 67.0719 6.79999 45.45C6.79999 23.9782 24.0854 6.54371 45.5 6.30253L45.5 0Z" fill="#ECF1EC"/>
<path d="M15.44 52V39.22H20.804C21.38 39.22 21.908 39.34 22.388 39.58C22.868 39.82 23.288 40.138 23.648 40.534C24.008 40.93 24.284 41.374 24.476 41.866C24.668 42.358 24.764 42.862 24.764 43.378C24.764 44.086 24.602 44.764 24.278 45.412C23.966 46.048 23.516 46.564 22.928 46.96C22.352 47.356 21.68 47.554 20.912 47.554H17.456V52H15.44ZM17.456 45.772H20.786C21.17 45.772 21.506 45.67 21.794 45.466C22.082 45.25 22.304 44.962 22.46 44.602C22.628 44.242 22.712 43.834 22.712 43.378C22.712 42.91 22.616 42.496 22.424 42.136C22.232 41.776 21.98 41.5 21.668 41.308C21.368 41.104 21.038 41.002 20.678 41.002H17.456V45.772ZM31.6948 44.296C30.9268 44.308 30.2428 44.482 29.6428 44.818C29.0548 45.154 28.6348 45.628 28.3828 46.24V52H26.4028V42.586H28.2388V44.692C28.5628 44.044 28.9888 43.528 29.5168 43.144C30.0448 42.748 30.6028 42.532 31.1908 42.496C31.3108 42.496 31.4068 42.496 31.4788 42.496C31.5628 42.496 31.6348 42.502 31.6948 42.514V44.296ZM37.1895 52.18C36.4455 52.18 35.7795 52.054 35.1915 51.802C34.6035 51.538 34.0935 51.178 33.6615 50.722C33.2415 50.266 32.9175 49.75 32.6895 49.174C32.4615 48.586 32.3475 47.962 32.3475 47.302C32.3475 46.642 32.4615 46.018 32.6895 45.43C32.9175 44.842 33.2415 44.326 33.6615 43.882C34.0935 43.426 34.6035 43.072 35.1915 42.82C35.7915 42.556 36.4575 42.424 37.1895 42.424C37.9215 42.424 38.5815 42.556 39.1695 42.82C39.7695 43.072 40.2795 43.426 40.6995 43.882C41.1315 44.326 41.4615 44.842 41.6895 45.43C41.9175 46.018 42.0315 46.642 42.0315 47.302C42.0315 47.962 41.9175 48.586 41.6895 49.174C41.4615 49.75 41.1315 50.266 40.6995 50.722C40.2795 51.178 39.7695 51.538 39.1695 51.802C38.5815 52.054 37.9215 52.18 37.1895 52.18ZM34.3815 47.32C34.3815 47.92 34.5075 48.46 34.7595 48.94C35.0115 49.42 35.3475 49.798 35.7675 50.074C36.1875 50.35 36.6615 50.488 37.1895 50.488C37.7055 50.488 38.1735 50.35 38.5935 50.074C39.0255 49.786 39.3675 49.402 39.6195 48.922C39.8715 48.43 39.9975 47.89 39.9975 47.302C39.9975 46.702 39.8715 46.162 39.6195 45.682C39.3675 45.202 39.0255 44.824 38.5935 44.548C38.1735 44.26 37.7055 44.116 37.1895 44.116C36.6615 44.116 36.1875 44.26 35.7675 44.548C35.3475 44.836 35.0115 45.22 34.7595 45.7C34.5075 46.168 34.3815 46.708 34.3815 47.32ZM48.885 51.514C48.717 51.598 48.507 51.688 48.255 51.784C48.003 51.88 47.715 51.964 47.391 52.036C47.079 52.108 46.755 52.144 46.419 52.144C46.011 52.144 45.633 52.072 45.285 51.928C44.937 51.784 44.655 51.556 44.439 51.244C44.235 50.92 44.133 50.506 44.133 50.002V44.116H42.891V42.586H44.133V39.49H46.113V42.586H48.165V44.116H46.113V49.372C46.137 49.696 46.239 49.936 46.419 50.092C46.611 50.248 46.845 50.326 47.121 50.326C47.397 50.326 47.661 50.278 47.913 50.182C48.165 50.086 48.351 50.008 48.471 49.948L48.885 51.514ZM54.3993 52.18C53.6673 52.18 53.0013 52.054 52.4013 51.802C51.8133 51.538 51.3033 51.184 50.8713 50.74C50.4393 50.284 50.1033 49.768 49.8633 49.192C49.6353 48.604 49.5213 47.98 49.5213 47.32C49.5213 46.432 49.7253 45.622 50.1333 44.89C50.5413 44.146 51.1113 43.552 51.8433 43.108C52.5753 42.652 53.4333 42.424 54.4173 42.424C55.4013 42.424 56.2473 42.652 56.9553 43.108C57.6753 43.552 58.2333 44.14 58.6293 44.872C59.0253 45.604 59.2233 46.39 59.2233 47.23C59.2233 47.374 59.2173 47.512 59.2053 47.644C59.1933 47.764 59.1813 47.866 59.1693 47.95H51.6273C51.6633 48.502 51.8133 48.988 52.0773 49.408C52.3533 49.816 52.7013 50.14 53.1213 50.38C53.5413 50.608 53.9913 50.722 54.4713 50.722C54.9993 50.722 55.4973 50.59 55.9653 50.326C56.4453 50.062 56.7693 49.714 56.9373 49.282L58.6293 49.768C58.4253 50.224 58.1133 50.638 57.6933 51.01C57.2853 51.37 56.7993 51.658 56.2353 51.874C55.6713 52.078 55.0593 52.18 54.3993 52.18ZM51.5733 46.636H57.2613C57.2253 46.096 57.0693 45.622 56.7933 45.214C56.5293 44.794 56.1873 44.47 55.7673 44.242C55.3593 44.002 54.9033 43.882 54.3993 43.882C53.9073 43.882 53.4513 44.002 53.0313 44.242C52.6233 44.47 52.2873 44.794 52.0233 45.214C51.7593 45.622 51.6093 46.096 51.5733 46.636ZM60.8384 52V42.586H62.8184V52H60.8384ZM60.8384 41.038V38.86H62.8184V41.038H60.8384ZM73.6398 52H71.6598V46.726C71.6598 45.85 71.5158 45.208 71.2278 44.8C70.9518 44.392 70.5378 44.188 69.9858 44.188C69.6018 44.188 69.2178 44.284 68.8338 44.476C68.4618 44.668 68.1258 44.932 67.8258 45.268C67.5258 45.592 67.3098 45.97 67.1778 46.402V52H65.1978V42.586H66.9978V44.476C67.2378 44.056 67.5498 43.696 67.9338 43.396C68.3298 43.084 68.7738 42.844 69.2658 42.676C69.7578 42.508 70.2798 42.424 70.8318 42.424C71.3958 42.424 71.8578 42.526 72.2178 42.73C72.5898 42.934 72.8778 43.216 73.0818 43.576C73.2978 43.924 73.4418 44.332 73.5138 44.8C73.5978 45.256 73.6398 45.742 73.6398 46.258V52Z" fill="#56514B"/>
</svg>
